<svg id="visual" viewBox="0 0 900 600" width="900" height="600" xmlns="http://www.w3.org/2000/svg" xmlns:xlink="http://www.w3.org/1999/xlink" version="1.1"><path d="M0 55L21.5 59C43 63 86 71 128.8 78C171.7 85 214.3 91 257.2 88C300 85 343 73 385.8 68C428.7 63 471.3 65 514.2 69C557 73 600 79 642.8 84C685.7 89 728.3 93 771.2 95C814 97 857 97 878.5 97L900 97L900 0L878.5 0C857 0 814 0 771.2 0C728.3 0 685.7 0 642.8 0C600 0 557 0 514.2 0C471.3 0 428.7 0 385.8 0C343 0 300 0 257.2 0C214.3 0 171.7 0 128.8 0C86 0 43 0 21.5 0L0 0Z" fill="#42474d"></path><path d="M0 145L21.5 149C43 153 86 161 128.8 167C171.7 173 214.3 177 257.2 172C300 167 343 153 385.8 153C428.7 153 471.3 167 514.2 174C557 181 600 181 642.8 182C685.7 183 728.3 185 771.2 180C814 175 857 163 878.5 157L900 151L900 95L878.5 95C857 95 814 95 771.2 93C728.3 91 685.7 87 642.8 82C600 77 557 71 514.2 67C471.3 63 428.7 61 385.8 66C343 71 300 83 257.2 86C214.3 89 171.7 83 128.8 76C86 69 43 61 21.5 57L0 53Z" fill="#31353a"></path><path d="M0 211L21.5 222C43 233 86 255 128.8 261C171.7 267 214.3 257 257.2 258C300 259 343 271 385.8 272C428.7 273 471.3 263 514.2 262C557 261 600 269 642.8 268C685.7 267 728.3 257 771.2 250C814 243 857 239 878.5 237L900 235L900 149L878.5 155C857 161 814 173 771.2 178C728.3 183 685.7 181 642.8 180C600 179 557 179 514.2 172C471.3 165 428.7 151 385.8 151C343 151 300 165 257.2 170C214.3 175 171.7 171 128.8 165C86 159 43 151 21.5 147L0 143Z" fill="#212428"></path><path d="M0 391L21.5 405C43 419 86 447 128.8 447C171.7 447 214.3 419 257.2 420C300 421 343 451 385.8 451C428.7 451 471.3 421 514.2 410C557 399 600 407 642.8 406C685.7 405 728.3 395 771.2 386C814 377 857 369 878.5 365L900 361L900 233L878.5 235C857 237 814 241 771.2 248C728.3 255 685.7 265 642.8 266C600 267 557 259 514.2 260C471.3 261 428.7 271 385.8 270C343 269 300 257 257.2 256C214.3 255 171.7 265 128.8 259C86 253 43 231 21.5 220L0 209Z" fill="#1d2023"></path><path d="M0 601L21.5 601C43 601 86 601 128.8 601C171.7 601 214.3 601 257.2 601C300 601 343 601 385.8 601C428.7 601 471.3 601 514.2 601C557 601 600 601 642.8 601C685.7 601 728.3 601 771.2 601C814 601 857 601 878.5 601L900 601L900 359L878.5 363C857 367 814 375 771.2 384C728.3 393 685.7 403 642.8 404C600 405 557 397 514.2 408C471.3 419 428.7 449 385.8 449C343 449 300 419 257.2 418C214.3 417 171.7 445 128.8 445C86 445 43 417 21.5 403L0 389Z" fill="#1a1c1f"></path></svg>